ply
format ascii 1.0
comment VCGLIB generated
element vertex 480
property float x
property float y
property float z
element face 880
property list uchar int vertex_indices
end_header
0 0 0.488037 
0.003906 0.042188 0.476326 
0.003906 -0.042188 0.476326 
0.010742 0 0.575333 
0.0125 0.056251 0.450561 
0.0125 -0.056251 0.450561 
0.019531 0 0.413654 
0.021094 0.042188 0.424797 
0.021094 -0.042188 0.424797 
0.025 0 0.413086 
0.03875 0.19625 0.488037 
0.03875 -0.19625 0.488037 
0.039063 0 0.66803 
0.04866 0.192034 0.575333 
0.04866 -0.192034 0.575333 
0.056768 0.188584 0.413654 
0.056768 -0.188584 0.413654 
0.0625 0 0.358795 
0.074785 0.180918 0.66803 
0.074785 -0.180918 0.66803 
0.079102 0 0.764481 
0.096406 0.171719 0.358795 
0.096406 -0.171719 0.358795 
0.1 0 0.769043 
0.103906 0.042188 0.777779 
0.103906 -0.042188 0.777779 
0.105469 0 0.32156 
0.111721 0.165203 0.764481 
0.111721 -0.165203 0.764481 
0.1125 0.056251 0.796997 
0.1125 -0.056251 0.796997 
0.121094 0.042188 0.816215 
0.121094 -0.042188 0.816215 
0.125 0 0.300049 
0.125 0 0.824951 
0.125 0 0.863037 
0.136045 0.154853 0.32156 
0.136045 -0.154853 0.32156 
0.137695 0 0.881027 
0.145 0.355 0.488037 
0.145 -0.355 0.488037 
0.149219 0 0.887024 
0.15 0 0.863037 
0.152627 0.347373 0.575333 
0.152627 -0.347373 0.575333 
0.154062 0.147187 0.300049 
0.154062 0.147187 0.863037 
0.154062 -0.147187 0.300049 
0.154062 -0.147187 0.863037 
0.154883 0 0.881027 
0.158867 0.341133 0.413654 
0.158867 -0.341133 0.413654 
0.165774 0.142205 0.881027 
0.165774 -0.142204 0.881027 
0.172734 0.327266 0.66803 
0.172734 -0.327266 0.66803 
0.175 0 0.863037 
0.176404 0.137682 0.887024 
0.176404 -0.137681 0.887024 
0.177125 0.137375 0.863037 
0.177125 -0.137375 0.863037 
0.181629 0.135459 0.881027 
0.181629 -0.135458 0.881027 
0.189375 0.310625 0.358795 
0.189375 -0.310625 0.358795 
0.200187 0.127562 0.863037 
0.200187 -0.127562 0.863037 
0.201162 0.298838 0.764481 
0.201162 -0.298838 0.764481 
0.210938 0 0.884945 
0.219883 0.280117 0.32156 
0.219883 -0.280117 0.32156 
0.23334 0.113457 0.884945 
0.23334 -0.113457 0.884945 
0.23375 0.26625 0.300049 
0.23375 0.26625 0.863037 
0.23375 -0.26625 0.300049 
0.23375 -0.26625 0.863037 
0.242764 0.257238 0.881027 
0.242764 -0.257235 0.881027 
0.250945 0.249056 0.887024 
0.250945 -0.249054 0.887024 
0.2515 0.2485 0.863037 
0.2515 -0.2485 0.863037 
0.254967 0.245034 0.881027 
0.254967 -0.245033 0.881027 
0.26925 0.23075 0.863037 
0.26925 -0.23075 0.863037 
0.29375 0 0.900055 
0.294766 0.205234 0.884945 
0.294766 -0.205234 0.884945 
0.30375 0.46125 0.488037 
0.30375 -0.46125 0.488037 
0.307966 0.45134 0.575333 
0.307966 -0.45134 0.575333 
0.309734 0.080953 0.900055 
0.309734 -0.080953 0.900055 
0.311416 0.443233 0.413654 
0.311416 -0.443233 0.413654 
0.319082 0.425215 0.66803 
0.319082 -0.425215 0.66803 
0.328281 0.403594 0.358795 
0.328281 -0.403594 0.358795 
0.334797 0.388279 0.764481 
0.334797 -0.388279 0.764481 
0.345146 0.363955 0.32156 
0.345146 -0.363955 0.32156 
0.352812 0.345937 0.300049 
0.352812 0.345937 0.863037 
0.352812 -0.345937 0.300049 
0.352812 -0.345937 0.863037 
0.353562 0.146438 0.900055 
0.353562 -0.146438 0.900055 
0.357795 0.334229 0.881027 
0.357795 -0.334224 0.881027 
0.362318 0.323599 0.887024 
0.362318 -0.323595 0.887024 
0.362625 0.322875 0.863037 
0.362625 -0.322875 0.863037 
0.364542 0.318373 0.881027 
0.364542 -0.318371 0.881027 
0.372437 0.299813 0.863037 
0.372437 -0.299813 0.863037 
0.385938 0 0.915394 
0.386543 0.266661 0.884945 
0.386543 -0.266661 0.884945 
0.394777 0.044769 0.915394 
0.394777 -0.044769 0.915394 
0.414844 0 1.03776 
0.41875 0 1.00793 
0.419016 0.080984 0.915394 
0.419016 -0.080984 0.915394 
0.419047 0.190266 0.900055 
0.419047 -0.190266 0.900055 
0.421414 0.033513 1.03776 
0.421414 -0.033513 1.03776 
0.425021 0.03197 1.00793 
0.425021 -0.03197 1.00793 
0.43946 0.06054 1.03776 
0.43946 -0.06054 1.03776 
0.442242 0.057758 1.00793 
0.442242 -0.057758 1.00793 
0.45 0 0.937988 
0.450781 0 0.971153 
0.453875 0.019625 0.937988 
0.453875 -0.019625 0.937988 
0.454586 0.019348 0.971153 
0.454586 -0.019348 0.971153 
0.45523 0.105222 0.915394 
0.45523 -0.105222 0.915394 
0.4645 0.0355 0.937988 
0.4645 -0.0355 0.937988 
0.465028 0.034972 0.971153 
0.465028 -0.034972 0.971153 
0.466487 0.078587 1.03776 
0.466487 -0.078587 1.03776 
0.46803 0.07498 1.00793 
0.46803 -0.07498 1.00793 
0.480375 0.046124 0.937988 
0.480375 -0.046124 0.937988 
0.480652 0.045414 0.971153 
0.480652 -0.045414 0.971153 
0.5 0 1.05005 
0.5 0.049218 0.971153 
0.5 0.049999 0.937988 
0.5 0.08125 1.00793 
0.5 0.085157 1.03776 
0.5 0.114062 0.915394 
0.5 0.20625 0.900055 
0.5 0.289063 0.884945 
0.5 0.325001 0.863037 
0.5 0.34512 0.881027 
0.5 0.35 0.863037 
0.5 0.350785 0.887024 
0.5 0.362308 0.881027 
0.5 0.375 0.300049 
0.5 0.375 0.863037 
0.5 0.394531 0.32156 
0.5 0.420898 0.764481 
0.5 0.4375 0.358795 
0.5 0.460938 0.66803 
0.5 0.480469 0.413654 
0.5 0.489258 0.575333 
0.5 0.5 0.488037 
0.5 -0.049218 0.971153 
0.5 -0.049999 0.937988 
0.5 -0.08125 1.00793 
0.5 -0.085157 1.03776 
0.5 -0.114062 0.915394 
0.5 -0.20625 0.900055 
0.5 -0.289063 0.884945 
0.5 -0.325001 0.863037 
0.5 -0.345118 0.881027 
0.5 -0.35 0.863037 
0.5 -0.35078 0.887024 
0.5 -0.362303 0.881027 
0.5 -0.375 0.300049 
0.5 -0.375 0.863037 
0.5 -0.394531 0.32156 
0.5 -0.420898 0.764481 
0.5 -0.4375 0.358795 
0.5 -0.460938 0.66803 
0.5 -0.480469 0.413654 
0.5 -0.489258 0.575333 
0.5 -0.5 0.488037 
0.519348 0.045414 0.971153 
0.519348 -0.045414 0.971153 
0.519625 0.046124 0.937988 
0.519625 -0.046124 0.937988 
0.53197 0.07498 1.00793 
0.53197 -0.07498 1.00793 
0.533513 0.078587 1.03776 
0.533513 -0.078587 1.03776 
0.534972 0.034972 0.971153 
0.534972 -0.034972 0.971153 
0.5355 0.0355 0.937988 
0.5355 -0.0355 0.937988 
0.54477 0.105222 0.915394 
0.54477 -0.105222 0.915394 
0.545414 0.019348 0.971153 
0.545414 -0.019348 0.971153 
0.546125 0.019625 0.937988 
0.546125 -0.019625 0.937988 
0.549219 0 0.971153 
0.55 0 0.937988 
0.557758 0.057758 1.00793 
0.557758 -0.057758 1.00793 
0.56054 0.06054 1.03776 
0.56054 -0.06054 1.03776 
0.574979 0.03197 1.00793 
0.574979 -0.03197 1.00793 
0.578586 0.033513 1.03776 
0.578586 -0.033513 1.03776 
0.580953 0.190266 0.900055 
0.580953 -0.190266 0.900055 
0.580984 0.080984 0.915394 
0.580984 -0.080984 0.915394 
0.58125 0 1.00793 
0.585156 0 1.03776 
0.605223 0.044769 0.915394 
0.605223 -0.044769 0.915394 
0.613457 0.266661 0.884945 
0.613457 -0.266661 0.884945 
0.614062 0 0.915394 
0.627562 0.299813 0.863037 
0.627562 -0.299813 0.863037 
0.635459 0.318373 0.881027 
0.635459 -0.318371 0.881027 
0.637375 0.322875 0.863037 
0.637375 -0.322875 0.863037 
0.637682 0.323599 0.887024 
0.637682 -0.323595 0.887024 
0.642205 0.334229 0.881027 
0.642205 -0.334224 0.881027 
0.646437 0.146438 0.900055 
0.646437 -0.146438 0.900055 
0.647187 0.345937 0.300049 
0.647187 0.345937 0.863037 
0.647187 -0.345937 0.300049 
0.647187 -0.345937 0.863037 
0.654853 0.363955 0.32156 
0.654853 -0.363955 0.32156 
0.665203 0.388279 0.764481 
0.665203 -0.388279 0.764481 
0.671719 0.403594 0.358795 
0.671719 -0.403594 0.358795 
0.680918 0.425215 0.66803 
0.680918 -0.425215 0.66803 
0.688584 0.443233 0.413654 
0.688584 -0.443233 0.413654 
0.690266 0.080953 0.900055 
0.690266 -0.080953 0.900055 
0.692034 0.45134 0.575333 
0.692034 -0.45134 0.575333 
0.69625 0.46125 0.488037 
0.69625 -0.46125 0.488037 
0.705234 0.205234 0.884945 
0.705234 -0.205234 0.884945 
0.70625 0 0.900055 
0.73075 0.23075 0.863037 
0.73075 -0.23075 0.863037 
0.745033 0.245034 0.881027 
0.745033 -0.245033 0.881027 
0.7485 0.2485 0.863037 
0.7485 -0.2485 0.863037 
0.749055 0.249056 0.887024 
0.749055 -0.249054 0.887024 
0.757236 0.257238 0.881027 
0.757236 -0.257235 0.881027 
0.76625 0.26625 0.300049 
0.76625 0.26625 0.863037 
0.76625 -0.26625 0.300049 
0.76625 -0.26625 0.863037 
0.76666 0.113457 0.884945 
0.76666 -0.113457 0.884945 
0.780117 0.280117 0.32156 
0.780117 -0.280117 0.32156 
0.789062 0 0.884945 
0.798838 0.298838 0.764481 
0.798838 -0.298838 0.764481 
0.799812 0.127562 0.863037 
0.799812 -0.127562 0.863037 
0.810625 0.310625 0.358795 
0.810625 -0.310625 0.358795 
0.818371 0.135459 0.881027 
0.818371 -0.135458 0.881027 
0.822875 0.137375 0.863037 
0.822875 -0.137375 0.863037 
0.823596 0.137682 0.887024 
0.823596 -0.137681 0.887024 
0.825 0 0.863037 
0.827266 0.327266 0.66803 
0.827266 -0.327266 0.66803 
0.834226 0.142205 0.881027 
0.834226 -0.142204 0.881027 
0.841133 0.341133 0.413654 
0.841133 -0.341133 0.413654 
0.845117 0 0.881027 
0.845937 0.147187 0.300049 
0.845937 0.147187 0.863037 
0.845937 -0.147187 0.300049 
0.845937 -0.147187 0.863037 
0.847373 0.347373 0.575333 
0.847373 -0.347373 0.575333 
0.85 0 0.863037 
0.850781 0 0.887024 
0.855 0.355 0.488037 
0.855 -0.355 0.488037 
0.862305 0 0.881027 
0.863955 0.154853 0.32156 
0.863955 -0.154853 0.32156 
0.875 0 0.300049 
0.875 0 0.863037 
0.888279 0.165203 0.764481 
0.888279 -0.165203 0.764481 
0.894531 0 0.32156 
0.903594 0.171719 0.358795 
0.903594 -0.171719 0.358795 
0.920898 0 0.764481 
0.925 0 0.413086 
0.925 0 0.618896 
0.925 0.092813 0.445244 
0.925 0.092813 0.586738 
0.925 0.123751 0.515991 
0.925 -0.092813 0.445244 
0.925 -0.092813 0.586738 
0.925 -0.123751 0.515991 
0.925215 0.180918 0.66803 
0.925215 -0.180918 0.66803 
0.9375 0 0.358795 
0.943232 0.188584 0.413654 
0.943232 -0.188584 0.413654 
0.95134 0.192034 0.575333 
0.95134 -0.192034 0.575333 
0.960938 0 0.66803 
0.96125 0.19625 0.488037 
0.96125 -0.19625 0.488037 
0.980469 0 0.413654 
0.989258 0 0.575333 
1 0 0.488037 
1.04492 0 0.646503 
1.05408 0.083804 0.622637 
1.05408 -0.083804 0.622637 
1.07422 0.111739 0.570131 
1.07422 -0.111739 0.570131 
1.09436 0.083804 0.517625 
1.09436 -0.083804 0.517625 
1.09687 0 0.71286 
1.10352 0 0.493759 
1.10859 0.063985 0.698941 
1.10859 -0.063985 0.698941 
1.12539 0 0.79327 
1.13437 0.085313 0.66832 
1.13437 -0.085313 0.66832 
1.13967 0.044165 0.788218 
1.13967 -0.044165 0.788218 
1.16016 0.063985 0.637698 
1.16016 -0.063985 0.637698 
1.17109 0.058887 0.777105 
1.17109 -0.058887 0.777105 
1.17188 0 0.623779 
1.175 0 0.863037 
1.19297 0 0.8732 
1.19844 0.035156 0.863037 
1.19844 -0.035156 0.863037 
1.2 0 0.863037 
1.20251 0.044165 0.765992 
1.20251 -0.044165 0.765992 
1.20625 0 0.876587 
1.21016 0 0.8732 
1.21563 0.021094 0.863037 
1.21563 -0.021094 0.863037 
1.2168 0 0.76094 
1.21807 0.032959 0.873741 
1.21807 -0.032959 0.873741 
1.22981 0.028125 0.87746 
1.22981 -0.028125 0.87746 
1.23016 0.023291 0.873967 
1.23016 -0.023291 0.873967 
1.25 0.028125 0.863037 
1.25 0.046875 0.863037 
1.25 -0.028125 0.863037 
1.25 -0.046875 0.863037 
1.27329 0.043945 0.874933 
1.27329 -0.043945 0.874933 
1.27417 0.031055 0.875654 
1.27417 -0.031055 0.875654 
1.28164 0.0375 0.879379 
1.28164 -0.0375 0.879379 
1.28437 0.021094 0.863037 
1.28437 -0.021094 0.863037 
1.3 0 0.863037 
1.30156 0.035156 0.863037 
1.30156 -0.035156 0.863037 
1.31818 0.023291 0.877342 
1.31818 -0.023291 0.877342 
1.325 0 0.863037 
1.32851 0.032959 0.876125 
1.32851 -0.032959 0.876125 
1.33347 0.028125 0.881299 
1.33347 -0.028125 0.881299 
1.33818 0 0.878109 
1.35361 0 0.876667 
1.35703 0 0.882171 
-0.016797 0 0.768166 
-0.020276 0.042188 0.776765 
-0.020276 -0.042188 0.776765 
-0.02793 0.056251 0.795683 
-0.02793 -0.056251 0.795683 
-0.035583 0.042188 0.814601 
-0.035583 -0.042188 0.814601 
-0.039063 0 0.8232 
-0.080078 0 0.538757 
-0.082733 0.042188 0.529498 
-0.082733 -0.042188 0.529498 
-0.088574 0.056251 0.509128 
-0.088574 -0.056251 0.509128 
-0.094415 0.042188 0.488759 
-0.094415 -0.042188 0.488759 
-0.09707 0 0.4795 
-0.103125 0 0.762024 
-0.111426 0.042188 0.769668 
-0.111426 -0.042188 0.769668 
-0.129688 0.056251 0.786484 
-0.129688 -0.056251 0.786484 
-0.134375 0 0.600098 
-0.141943 0.042188 0.592611 
-0.141943 -0.042188 0.592611 
-0.147949 0.042188 0.8033 
-0.147949 -0.042188 0.8033 
-0.15625 0 0.810943 
-0.156641 0 0.745354 
-0.158594 0.056251 0.576141 
-0.158594 -0.056251 0.576141 
-0.165234 0 0.661621 
-0.167566 0.042188 0.750404 
-0.167566 -0.042188 0.750404 
-0.175 0 0.712891 
-0.175244 0.042188 0.559671 
-0.175244 -0.042188 0.559671 
-0.175885 0.042188 0.656723 
-0.175885 -0.042188 0.656723 
-0.182812 0 0.552185 
-0.186719 0.042188 0.712891 
-0.186719 -0.042188 0.712891 
-0.191602 0.056251 0.761515 
-0.191602 -0.056251 0.761515 
-0.199316 0.056251 0.645947 
-0.199316 -0.056251 0.645947 
-0.2125 0.056251 0.712891 
-0.2125 -0.056251 0.712891 
-0.215637 0.042188 0.772625 
-0.215637 -0.042188 0.772625 
-0.222748 0.042188 0.63517 
-0.222748 -0.042188 0.63517 
-0.226562 0 0.777676 
-0.233398 0 0.630272 
-0.238281 0.042188 0.712891 
-0.238281 -0.042188 0.712891 
-0.25 0 0.712891 
3 324 317 304 
3 324 304 306 
3 306 304 281 
3 306 281 283 
3 281 246 248 
3 281 248 283 
3 246 171 172 
3 246 172 248 
3 325 308 304 
3 325 304 317 
3 308 285 281 
3 308 281 304 
3 281 285 250 
3 281 250 246 
3 246 250 173 
3 246 173 171 
3 328 313 308 
3 328 308 325 
3 313 287 285 
3 313 285 308 
3 285 287 252 
3 285 252 250 
3 250 252 174 
3 250 174 173 
3 332 319 313 
3 332 313 328 
3 319 290 287 
3 319 287 313 
3 287 290 257 
3 287 257 252 
3 252 257 176 
3 252 176 174 
3 172 171 119 
3 172 119 117 
3 117 119 84 
3 117 84 82 
3 84 61 59 
3 84 59 82 
3 61 49 42 
3 61 42 59 
3 173 115 119 
3 173 119 171 
3 115 80 84 
3 115 84 119 
3 84 80 57 
3 84 57 61 
3 61 57 41 
3 61 41 49 
3 174 113 115 
3 174 115 173 
3 113 78 80 
3 113 80 115 
3 80 78 52 
3 80 52 57 
3 57 52 38 
3 57 38 41 
3 176 108 113 
3 176 113 174 
3 108 75 78 
3 108 78 113 
3 78 75 46 
3 78 46 52 
3 52 46 35 
3 52 35 38 
3 42 49 62 
3 42 62 60 
3 60 62 85 
3 60 85 83 
3 85 120 118 
3 85 118 83 
3 120 192 193 
3 120 193 118 
3 41 58 62 
3 41 62 49 
3 58 81 85 
3 58 85 62 
3 85 81 116 
3 85 116 120 
3 120 116 194 
3 120 194 192 
3 38 53 58 
3 38 58 41 
3 53 79 81 
3 53 81 58 
3 81 79 114 
3 81 114 116 
3 116 114 195 
3 116 195 194 
3 35 48 53 
3 35 53 38 
3 48 77 79 
3 48 79 53 
3 79 77 110 
3 79 110 114 
3 114 110 197 
3 114 197 195 
3 193 192 247 
3 193 247 249 
3 249 247 282 
3 249 282 284 
3 282 305 307 
3 282 307 284 
3 305 317 324 
3 305 324 307 
3 194 251 247 
3 194 247 192 
3 251 286 282 
3 251 282 247 
3 282 286 309 
3 282 309 305 
3 305 309 325 
3 305 325 317 
3 195 253 251 
3 195 251 194 
3 253 288 286 
3 253 286 251 
3 286 288 314 
3 286 314 309 
3 309 314 328 
3 309 328 325 
3 197 259 253 
3 197 253 195 
3 259 292 288 
3 259 288 253 
3 288 292 321 
3 288 321 314 
3 314 321 332 
3 314 332 328 
3 338 333 319 
3 338 319 332 
3 333 298 290 
3 333 290 319 
3 290 298 262 
3 290 262 257 
3 257 262 178 
3 257 178 176 
3 354 347 333 
3 354 333 338 
3 347 311 298 
3 347 298 333 
3 298 311 266 
3 298 266 262 
3 262 266 180 
3 262 180 178 
3 358 352 347 
3 358 347 354 
3 352 322 311 
3 352 311 347 
3 311 322 272 
3 311 272 266 
3 266 272 182 
3 266 182 180 
3 359 355 352 
3 359 352 358 
3 355 326 322 
3 355 322 352 
3 322 326 274 
3 322 274 272 
3 272 274 183 
3 272 183 182 
3 178 103 108 
3 178 108 176 
3 103 67 75 
3 103 75 108 
3 75 67 27 
3 75 27 46 
3 46 27 20 
3 46 20 35 
3 180 99 103 
3 180 103 178 
3 99 54 67 
3 99 67 103 
3 67 54 18 
3 67 18 27 
3 27 18 12 
3 27 12 20 
3 182 93 99 
3 182 99 180 
3 93 43 54 
3 93 54 99 
3 54 43 13 
3 54 13 18 
3 18 13 3 
3 18 3 12 
3 183 91 93 
3 183 93 182 
3 91 39 43 
3 91 43 93 
3 43 39 10 
3 43 10 13 
3 13 10 0 
3 13 0 3 
3 20 28 48 
3 20 48 35 
3 28 68 77 
3 28 77 48 
3 77 68 104 
3 77 104 110 
3 110 104 199 
3 110 199 197 
3 12 19 28 
3 12 28 20 
3 19 55 68 
3 19 68 28 
3 68 55 100 
3 68 100 104 
3 104 100 201 
3 104 201 199 
3 3 14 19 
3 3 19 12 
3 14 44 55 
3 14 55 19 
3 55 44 94 
3 55 94 100 
3 100 94 203 
3 100 203 201 
3 0 11 14 
3 0 14 3 
3 11 40 44 
3 11 44 14 
3 44 40 92 
3 44 92 94 
3 94 92 204 
3 94 204 203 
3 199 263 259 
3 199 259 197 
3 263 299 292 
3 263 292 259 
3 292 299 334 
3 292 334 321 
3 321 334 338 
3 321 338 332 
3 201 267 263 
3 201 263 199 
3 267 312 299 
3 267 299 263 
3 299 312 348 
3 299 348 334 
3 334 348 354 
3 334 354 338 
3 203 273 267 
3 203 267 201 
3 273 323 312 
3 273 312 267 
3 312 323 353 
3 312 353 348 
3 348 353 358 
3 348 358 354 
3 204 275 273 
3 204 273 203 
3 275 327 323 
3 275 323 273 
3 323 327 356 
3 323 356 353 
3 353 356 359 
3 353 359 358 
3 359 357 350 
3 359 350 355 
3 355 350 315 
3 355 315 326 
3 315 268 274 
3 315 274 326 
3 268 181 183 
3 268 183 274 
3 357 349 336 
3 357 336 350 
3 350 336 302 
3 350 302 315 
3 302 264 268 
3 302 268 315 
3 264 179 181 
3 264 181 268 
3 349 335 329 
3 349 329 336 
3 336 329 295 
3 336 295 302 
3 295 260 264 
3 295 264 302 
3 260 177 179 
3 260 179 264 
3 335 331 318 
3 335 318 329 
3 329 318 289 
3 329 289 295 
3 289 256 260 
3 289 260 295 
3 256 175 177 
3 256 177 260 
3 183 181 97 
3 183 97 91 
3 91 97 50 
3 91 50 39 
3 50 15 10 
3 50 10 39 
3 15 6 0 
3 15 0 10 
3 181 179 101 
3 181 101 97 
3 97 101 63 
3 97 63 50 
3 63 21 15 
3 63 15 50 
3 21 17 6 
3 21 6 15 
3 179 177 105 
3 179 105 101 
3 101 105 70 
3 101 70 63 
3 70 36 21 
3 70 21 63 
3 36 26 17 
3 36 17 21 
3 177 175 107 
3 177 107 105 
3 105 107 74 
3 105 74 70 
3 74 45 36 
3 74 36 70 
3 45 33 26 
3 45 26 36 
3 0 6 16 
3 0 16 11 
3 11 16 51 
3 11 51 40 
3 51 98 92 
3 51 92 40 
3 98 202 204 
3 98 204 92 
3 6 17 22 
3 6 22 16 
3 16 22 64 
3 16 64 51 
3 64 102 98 
3 64 98 51 
3 102 200 202 
3 102 202 98 
3 17 26 37 
3 17 37 22 
3 22 37 71 
3 22 71 64 
3 71 106 102 
3 71 102 64 
3 106 198 200 
3 106 200 102 
3 26 33 47 
3 26 47 37 
3 37 47 76 
3 37 76 71 
3 76 109 106 
3 76 106 71 
3 109 196 198 
3 109 198 106 
3 204 202 269 
3 204 269 275 
3 275 269 316 
3 275 316 327 
3 316 351 356 
3 316 356 327 
3 351 357 359 
3 351 359 356 
3 202 200 265 
3 202 265 269 
3 269 265 303 
3 269 303 316 
3 303 337 351 
3 303 351 316 
3 337 349 357 
3 337 357 351 
3 200 198 261 
3 200 261 265 
3 265 261 296 
3 265 296 303 
3 296 330 337 
3 296 337 303 
3 330 335 349 
3 330 349 337 
3 198 196 258 
3 198 258 261 
3 261 258 291 
3 261 291 296 
3 291 320 330 
3 291 330 296 
3 320 331 335 
3 320 335 330 
3 23 424 425 
3 23 425 24 
3 24 425 427 
3 24 427 29 
3 29 427 429 
3 29 429 31 
3 31 429 431 
3 31 431 34 
3 440 441 425 
3 440 425 424 
3 441 443 427 
3 441 427 425 
3 443 448 429 
3 443 429 427 
3 448 450 431 
3 448 431 429 
3 451 455 441 
3 451 441 440 
3 455 465 443 
3 455 443 441 
3 465 471 448 
3 465 448 443 
3 471 475 450 
3 471 450 448 
3 457 463 455 
3 457 455 451 
3 463 469 465 
3 463 465 455 
3 469 477 471 
3 469 471 465 
3 477 479 475 
3 477 475 471 
3 431 430 32 
3 431 32 34 
3 430 428 30 
3 430 30 32 
3 428 426 25 
3 428 25 30 
3 426 424 23 
3 426 23 25 
3 431 450 449 
3 431 449 430 
3 430 449 444 
3 430 444 428 
3 428 444 442 
3 428 442 426 
3 426 442 440 
3 426 440 424 
3 450 475 472 
3 450 472 449 
3 449 472 466 
3 449 466 444 
3 444 466 456 
3 444 456 442 
3 442 456 451 
3 442 451 440 
3 475 479 478 
3 475 478 472 
3 472 478 470 
3 472 470 466 
3 466 470 464 
3 466 464 456 
3 456 464 457 
3 456 457 451 
3 454 460 463 
3 454 463 457 
3 460 467 469 
3 460 469 463 
3 467 473 477 
3 467 477 469 
3 473 476 479 
3 473 479 477 
3 445 446 460 
3 445 460 454 
3 446 452 467 
3 446 467 460 
3 452 458 473 
3 452 473 467 
3 458 462 476 
3 458 476 473 
3 432 433 446 
3 432 446 445 
3 433 435 452 
3 433 452 446 
3 435 437 458 
3 435 458 452 
3 437 439 462 
3 437 462 458 
3 0 1 433 
3 0 433 432 
3 1 4 435 
3 1 435 433 
3 4 7 437 
3 4 437 435 
3 7 9 439 
3 7 439 437 
3 479 476 474 
3 479 474 478 
3 478 474 468 
3 478 468 470 
3 470 468 461 
3 470 461 464 
3 464 461 454 
3 464 454 457 
3 476 462 459 
3 476 459 474 
3 474 459 453 
3 474 453 468 
3 468 453 447 
3 468 447 461 
3 461 447 445 
3 461 445 454 
3 462 439 438 
3 462 438 459 
3 459 438 436 
3 459 436 453 
3 453 436 434 
3 453 434 447 
3 447 434 432 
3 447 432 445 
3 439 9 8 
3 439 8 438 
3 438 8 5 
3 438 5 436 
3 436 5 2 
3 436 2 434 
3 434 2 0 
3 434 0 432 
3 340 360 361 
3 340 361 342 
3 342 361 363 
3 342 363 343 
3 343 363 365 
3 343 365 341 
3 341 365 368 
3 341 368 339 
3 360 367 369 
3 360 369 361 
3 361 369 372 
3 361 372 363 
3 363 372 376 
3 363 376 365 
3 365 376 380 
3 365 380 368 
3 367 371 374 
3 367 374 369 
3 369 374 378 
3 369 378 372 
3 372 378 386 
3 372 386 376 
3 386 392 380 
3 386 380 376 
3 381 383 374 
3 381 374 371 
3 383 400 378 
3 383 378 374 
3 400 412 386 
3 400 386 378 
3 412 416 392 
3 412 392 386 
3 368 366 344 
3 368 344 339 
3 366 364 346 
3 366 346 344 
3 364 362 345 
3 364 345 346 
3 362 360 340 
3 362 340 345 
3 380 377 366 
3 380 366 368 
3 377 373 364 
3 377 364 366 
3 373 370 362 
3 373 362 364 
3 370 367 360 
3 370 360 362 
3 380 392 387 
3 380 387 377 
3 387 379 373 
3 387 373 377 
3 379 375 370 
3 379 370 373 
3 375 371 367 
3 375 367 370 
3 392 416 413 
3 392 413 387 
3 387 413 402 
3 387 402 379 
3 379 402 384 
3 379 384 375 
3 375 384 381 
3 375 381 371 
3 382 393 383 
3 382 383 381 
3 393 403 400 
3 393 400 383 
3 403 417 412 
3 403 412 400 
3 417 422 416 
3 417 416 412 
3 388 395 393 
3 388 393 382 
3 395 407 403 
3 395 403 393 
3 407 419 417 
3 407 417 403 
3 419 423 422 
3 419 422 417 
3 388 389 397 
3 388 397 395 
3 395 397 405 
3 395 405 407 
3 407 405 414 
3 407 414 419 
3 419 414 421 
3 419 421 423 
3 389 385 390 
3 389 390 397 
3 397 390 399 
3 397 399 405 
3 405 399 409 
3 405 409 414 
3 414 409 411 
3 414 411 421 
3 416 422 418 
3 416 418 413 
3 413 418 404 
3 413 404 402 
3 402 404 394 
3 402 394 384 
3 384 394 382 
3 384 382 381 
3 422 423 420 
3 422 420 418 
3 418 420 408 
3 418 408 404 
3 404 408 396 
3 404 396 394 
3 394 396 388 
3 394 388 382 
3 421 415 420 
3 421 420 423 
3 415 406 408 
3 415 408 420 
3 406 398 396 
3 406 396 408 
3 398 389 388 
3 398 388 396 
3 411 410 415 
3 411 415 421 
3 410 401 406 
3 410 406 415 
3 401 391 398 
3 401 398 406 
3 391 385 389 
3 391 389 398 
3 162 238 231 
3 162 231 227 
3 162 227 211 
3 162 211 166 
3 238 237 229 
3 238 229 231 
3 231 229 225 
3 231 225 227 
3 225 209 211 
3 225 211 227 
3 209 165 166 
3 209 166 211 
3 237 223 219 
3 237 219 229 
3 229 219 213 
3 229 213 225 
3 213 205 209 
3 213 209 225 
3 205 163 165 
3 205 165 209 
3 223 224 221 
3 223 221 219 
3 219 221 215 
3 219 215 213 
3 215 207 205 
3 215 205 213 
3 207 164 163 
3 207 163 205 
3 162 166 154 
3 162 154 138 
3 162 138 134 
3 162 134 128 
3 166 165 156 
3 166 156 154 
3 154 156 140 
3 154 140 138 
3 140 136 134 
3 140 134 138 
3 136 129 128 
3 136 128 134 
3 165 163 160 
3 165 160 156 
3 156 160 152 
3 156 152 140 
3 152 146 136 
3 152 136 140 
3 146 143 129 
3 146 129 136 
3 163 164 158 
3 163 158 160 
3 160 158 150 
3 160 150 152 
3 150 144 146 
3 150 146 152 
3 144 142 143 
3 144 143 146 
3 162 128 135 
3 162 135 139 
3 162 139 155 
3 162 155 187 
3 128 129 137 
3 128 137 135 
3 135 137 141 
3 135 141 139 
3 141 157 155 
3 141 155 139 
3 157 186 187 
3 157 187 155 
3 129 143 147 
3 129 147 137 
3 137 147 153 
3 137 153 141 
3 153 161 157 
3 153 157 141 
3 161 184 186 
3 161 186 157 
3 143 142 145 
3 143 145 147 
3 147 145 151 
3 147 151 153 
3 151 159 161 
3 151 161 153 
3 159 185 184 
3 159 184 161 
3 162 187 212 
3 162 212 228 
3 162 228 232 
3 162 232 238 
3 187 186 210 
3 187 210 212 
3 212 210 226 
3 212 226 228 
3 226 230 232 
3 226 232 228 
3 230 237 238 
3 230 238 232 
3 186 184 206 
3 186 206 210 
3 210 206 214 
3 210 214 226 
3 214 220 230 
3 214 230 226 
3 220 223 237 
3 220 237 230 
3 184 185 208 
3 184 208 206 
3 206 208 216 
3 206 216 214 
3 216 222 220 
3 216 220 214 
3 222 224 223 
3 222 223 220 
3 243 239 221 
3 243 221 224 
3 239 235 215 
3 239 215 221 
3 215 235 217 
3 215 217 207 
3 207 217 167 
3 207 167 164 
3 278 270 239 
3 278 239 243 
3 270 254 235 
3 270 235 239 
3 235 254 233 
3 235 233 217 
3 217 233 168 
3 217 168 167 
3 297 293 270 
3 297 270 278 
3 293 276 254 
3 293 254 270 
3 254 276 241 
3 254 241 233 
3 233 241 169 
3 233 169 168 
3 310 300 293 
3 310 293 297 
3 300 279 276 
3 300 276 293 
3 276 279 244 
3 276 244 241 
3 241 244 170 
3 241 170 169 
3 167 148 158 
3 167 158 164 
3 148 130 150 
3 148 150 158 
3 150 130 126 
3 150 126 144 
3 144 126 123 
3 144 123 142 
3 168 132 148 
3 168 148 167 
3 132 111 130 
3 132 130 148 
3 130 111 95 
3 130 95 126 
3 126 95 88 
3 126 88 123 
3 169 124 132 
3 169 132 168 
3 124 89 111 
3 124 111 132 
3 111 89 72 
3 111 72 95 
3 95 72 69 
3 95 69 88 
3 170 121 124 
3 170 124 169 
3 121 86 89 
3 121 89 124 
3 89 86 65 
3 89 65 72 
3 72 65 56 
3 72 56 69 
3 123 127 145 
3 123 145 142 
3 127 131 151 
3 127 151 145 
3 151 131 149 
3 151 149 159 
3 159 149 188 
3 159 188 185 
3 88 96 127 
3 88 127 123 
3 96 112 131 
3 96 131 127 
3 131 112 133 
3 131 133 149 
3 149 133 189 
3 149 189 188 
3 69 73 96 
3 69 96 88 
3 73 90 112 
3 73 112 96 
3 112 90 125 
3 112 125 133 
3 133 125 190 
3 133 190 189 
3 56 66 73 
3 56 73 69 
3 66 87 90 
3 66 90 73 
3 90 87 122 
3 90 122 125 
3 125 122 191 
3 125 191 190 
3 188 218 208 
3 188 208 185 
3 218 236 216 
3 218 216 208 
3 216 236 240 
3 216 240 222 
3 222 240 243 
3 222 243 224 
3 189 234 218 
3 189 218 188 
3 234 255 236 
3 234 236 218 
3 236 255 271 
3 236 271 240 
3 240 271 278 
3 240 278 243 
3 190 242 234 
3 190 234 189 
3 242 277 255 
3 242 255 234 
3 255 277 294 
3 255 294 271 
3 271 294 297 
3 271 297 278 
3 191 245 242 
3 191 242 190 
3 245 280 277 
3 245 277 242 
3 277 280 301 
3 277 301 294 
3 294 301 310 
3 294 310 297 
